<svg width="364" height="160" viewBox="0 0 364 160" fill="none" xmlns="http://www.w3.org/2000/svg">
<mask id="mask0" mask-type="alpha" maskUnits="userSpaceOnUse" x="250" y="76" width="59" height="50">
<rect x="250.419" y="76.665" width="57.6723" height="48.5798" fill="#C4C4C4"/>
</mask>
<g mask="url(#mask0)">
<path d="M266.147 117.512C265.963 116.729 302.496 74.7009 305.629 71.8438C308.762 68.9866 336.819 35.899 338.846 34.747C340.09 31.982 335.989 29.6317 334.147 30.9221C332.442 34.2862 302.865 69.2171 300.193 72.0742C297.521 74.9313 276.099 98.1111 266.746 105.53C264.719 111.153 262.83 112.121 261.402 113.733C261.171 114.609 261.448 115.807 263.153 116.913C264.857 118.019 266.147 117.512 266.147 117.512Z" fill="#6E7681"/>
<path d="M329.078 42.6726C326.407 45.2993 316.364 57.1426 313.737 60.2302C308.117 66.9123 284.851 93.2718 278.908 99.9077C276.145 103.041 265.594 113.825 262.83 116.682C262.922 116.774 263.061 116.866 263.199 116.912C264.903 118.065 266.193 117.511 266.193 117.511C266.009 116.728 302.542 74.7003 305.676 71.8431C308.808 68.986 336.865 35.8983 338.892 34.7463C339.214 34.0089 339.168 33.1794 338.754 32.4883C335.805 36.1288 332.396 39.4007 329.078 42.6726Z" fill="#484F58"/>
<path d="M262.139 112.948C261.862 113.179 261.632 113.456 261.402 113.732C261.171 114.608 261.448 115.806 263.153 116.912C264.857 118.018 266.147 117.511 266.147 117.511C266.239 117.234 266.423 117.004 266.607 116.774C265.594 115.022 264.027 113.686 262.139 112.948Z" fill="#30363D"/>
</g>
<path d="M364 134.286H228.831V135.207H364V134.286Z" fill="#161B22"/>
<path d="M0 136.129L12.1625 105.161L13.2682 114.609L22.2058 98.6637L24.2789 104.747L28.4713 94.0554L33.1705 108.94L40.5417 86.4978L46.0701 105.069L53.7638 94.0554C53.7638 94.0554 45.4712 97.0969 45.4712 96.2674C45.4712 95.4379 56.6662 80.6913 56.6662 80.6913C56.6662 80.6913 46.3465 84.5623 46.3465 83.7328C46.3465 82.9495 55.0998 74.8388 58.0944 69.7236C61.089 64.6083 66.4331 46.9586 66.4331 46.9586C66.4331 46.9586 75.0022 68.7098 79.5631 71.06C81.0374 67.5577 85.7364 57.6499 85.7364 57.6499L76.4304 61.7512C76.4304 61.7512 90.4356 32.212 92.1863 25.576C93.8909 18.8941 93.4763 21.1982 96.563 27.0046C98.6822 31.9355 101.216 48.1107 109.002 57.3273C116.373 64.2397 103.704 59.3089 103.704 59.3089L115.129 81.1983L125.173 61.7512L131.116 76.8664L140.007 57.3273L129.964 64.3779C129.964 64.3779 138.902 51.1982 140.836 40.8295C142.725 30.4148 145.121 13.871 145.121 13.871L157.744 37.9724C157.744 37.9724 169.815 4.51614 170.275 0C171.703 15.9908 190.822 54.1015 190.822 54.1015C190.822 54.1015 198.24 38.295 198.93 32.4424C201.234 38.2488 231.318 134.885 231.318 134.885C231.318 134.885 146.457 140.415 113.379 140.507C80.3002 140.599 19.073 138.387 11.0107 137.696C6.03519 137.281 0 136.129 0 136.129Z" fill="#161B22"/>
<path d="M194.471 140.634L196.004 135.829L204.485 130.719L216.339 123.87L222.061 118.147L228.601 110.889L223.492 108.845L218.689 103.939L219.098 99.1349L188.647 114.569L172.399 119.782L163.407 121.622L160.853 119.621L166.166 114.467L176.895 107.414L191.304 98.9304L208.675 91.2644L225.535 86.1538L233.199 83.9051L224.309 79.3055L218.383 72.2528L216.748 64.1779L217.769 59.2717L217.463 51.0946L218.996 42.8153L222.163 37.2958L220.222 28.9143L220.835 27.2789L227.17 25.8479L234.119 27.1767L237.798 25.3368L249.753 24.5186L260.687 28.1991L267.942 34.1272L270.701 37.9088L273.971 38.2155L276.73 41.8951L277.139 47.3123L276.321 52.9339L276.934 57.3291L276.423 65.1995L273.46 71.7412L280.204 69.1858L290.321 63.8707L299.824 59.4756L311.371 57.1249L316.378 60.0888L317.297 62.9513L315.356 71.1279L309.123 77.5674L302.685 80.0205L297.882 79.8161L294.101 77.6696L293.182 74.911L287.766 77.6696L275.81 82.3712L263.753 85.5405L255.169 86.7671L244.848 86.1535L247.914 91.3664L254.454 90.0375L260.687 90.9581L265.081 95.046L266.716 103.939L263.957 111.605L259.563 114.058L258.746 118.248L268.044 136.238L271.11 133.683L278.672 132.456L282.861 132.354L283.985 135.625L280.613 142.473L275.095 146.868L267.84 150.343L260.176 151.57L257.213 149.832L254.147 145.642L244.235 112.525L241.987 112.627L239.841 118.965L234.834 128.368L228.601 136.034L220.631 141.962L220.12 142.984L222.163 146.664L222.572 150.753L224.411 151.264L224.207 152.49L220.324 155.25L215.215 156.681L205.609 155.659L198.865 152.184L194.88 145.949L194.471 140.634Z" fill="#0D1117"/>
<path d="M229.337 160C254.781 160 275.407 156.679 275.407 152.581C275.407 148.483 254.781 145.162 229.337 145.162C203.893 145.162 183.267 148.483 183.267 152.581C183.267 156.679 203.893 160 229.337 160Z" fill="#161B22" fill-opacity="0.5"/>
<path d="M297.468 79.8266C296.557 79.5229 295.065 78.435 294.432 77.9289L293.673 76.7905C297.973 70.465 305.356 61.2544 307.333 62.2428C308.85 63.0018 311.127 64.0852 314.921 61.8633C315.791 62.5389 317.04 63.7903 316.818 65.784C316.059 72.6155 311.506 75.2722 308.091 77.9289C304.677 80.5856 298.606 80.2061 297.468 79.8266Z" fill="#0D1117"/>
<path d="M203.748 107.271L219.072 99.8261L224.757 91.1499L229.28 86.8487L234.025 84.4756L223.868 86.8487L202.589 93.9684L186.891 101.904L169.448 112.509L162.033 118.813L161.366 120.889L164.48 121.928L171.129 120.41L186.891 115.155L203.748 107.271Z" fill="#0D1117"/>
<path d="M217.528 156.364H210.332L204.907 155.478L199.924 153.041L195.717 147.504L194.721 140.195L196.381 136.097L203.91 131.445L214.761 125.244L219.743 121.146L226.497 113.836L237.901 123.361L232.143 132.331L227.161 137.315L219.743 142.852L221.957 146.95L222.621 151.38H223.397L225.168 151.934L221.957 154.813L217.528 156.364Z" fill="#0D1117"/>
<path d="M251.881 137.302L250.528 133.669L266.127 132.742L268.263 136.875L251.881 137.302Z" fill="#0D1117"/>
<path d="M263.171 145.446L254.094 146.491L258.512 151.232L262.368 151.875L271.847 149.223L263.171 145.446Z" fill="#0D1117"/>
<path d="M269.711 134.167L273.767 132.742H277.305H282.656L283.95 134.167V136.713L267.985 136.195L269.711 134.167Z" fill="#0D1117"/>

<path d="M319.404 147.004C319.404 147.004 321.569 124.885 320.74 121.751C320.233 123.548 311.341 137.926 311.341 137.926V123.917C311.341 123.917 309.361 130.368 308.716 132.35C308.071 129.354 303.418 120.461 304.109 121.475C304.8 122.488 304.938 131.843 304.109 131.843C303.464 131.658 300.976 123.087 298.489 120.276C299.455 121.244 300.147 128.525 300.976 132.166C300.653 130.829 293.974 126.221 290.749 125.575C291.071 127.695 295.862 131.658 296.83 134.47C297.797 137.281 296.185 140.415 296.185 140.415L302.266 144.977L319.404 147.004Z" fill="#161B22"/>
<mask id="mask1" mask-type="alpha" maskUnits="userSpaceOnUse" x="296" y="25" width="59" height="49">
<path fill-rule="evenodd" clip-rule="evenodd" d="M354.381 25.0488H296.709V72.8309C301.537 67.0583 308.191 60.8881 308.191 62.6719C308.191 64.5762 311.601 65.439 314.773 61.7546C315.643 62.4302 317.04 63.7908 316.818 65.7844C316.424 69.3284 315.01 71.7488 313.262 73.6286H354.381V25.0488Z" fill="#C4C4C4"/>
</mask>
<g mask="url(#mask1)">
<path d="M266.147 117.512C265.963 116.729 302.496 74.7009 305.629 71.8438C308.762 68.9866 336.819 35.899 338.846 34.747C340.09 31.982 335.989 29.6317 334.147 30.9221C332.442 34.2862 302.865 69.2171 300.193 72.0742C297.521 74.9313 276.099 98.1111 266.746 105.53C264.719 111.153 262.83 112.121 261.402 113.733C261.171 114.609 261.448 115.807 263.153 116.913C264.857 118.019 266.147 117.512 266.147 117.512Z" fill="#6E7681"/>
<path d="M329.078 42.6726C326.407 45.2993 316.364 57.1426 313.737 60.2302C308.117 66.9123 284.851 93.2718 278.908 99.9077C276.145 103.041 265.594 113.825 262.83 116.682C262.922 116.774 263.061 116.866 263.199 116.912C264.903 118.065 266.193 117.511 266.193 117.511C266.009 116.728 302.542 74.7003 305.676 71.8431C308.808 68.986 336.865 35.8983 338.892 34.7463C339.214 34.0089 339.168 33.1794 338.754 32.4883C335.805 36.1288 332.396 39.4007 329.078 42.6726Z" fill="#484F58"/>
</g>
<g opacity="0.5">
<path d="M321.385 120.277C321.017 119.125 320.878 117.881 321.063 116.637C321.201 116.083 321.569 115.438 322.123 115.438C322.399 115.485 322.629 115.577 322.859 115.761C323.321 116.175 323.781 116.591 324.149 117.097C327.144 120.645 329.356 124.793 330.784 129.217C330.6 127.005 331.797 124.886 333.455 123.41C335.114 121.936 337.233 121.152 339.398 120.599C340.182 120.369 341.15 120.277 341.748 120.83C342.116 121.245 342.255 121.844 342.07 122.397C341.886 122.904 341.564 123.364 341.15 123.733C340.182 124.562 339.076 125.254 337.971 125.806C335.575 127.144 333.317 128.71 331.198 130.461C331.014 130.646 330.784 130.784 330.553 130.83C330.415 130.83 330.23 130.83 330.092 130.784C325.485 129.724 322.537 124.424 321.385 120.277Z" fill="#30363D"/>
</g>
<path d="M307.979 146.775C307.84 146.315 311.387 134.794 311.387 134.794C311.387 134.794 321.938 128.297 323.827 127.19C325.716 126.084 328.342 126.269 328.342 126.269L334.101 124.103C334.101 124.103 349.948 128.297 350.409 128.435C350.87 128.573 353.68 133.734 354.924 135.439C356.168 137.144 356.767 138.25 356.951 141.015L357.089 143.826L348.705 152.812H339.076C339.076 152.812 332.257 155.438 330.691 154.978C329.124 154.518 323.551 153.135 321.523 151.384C319.496 149.633 307.979 146.775 307.979 146.775Z" fill="#484F58"/>
<path d="M328.434 128.295C328.388 127.972 327.651 119.999 335.207 111.336L335.897 111.936C332.074 116.267 330.508 120.461 329.862 123.225C329.171 126.221 329.356 128.156 329.356 128.202L328.434 128.295Z" fill="#484F58"/>
<path d="M336.035 112.579C335.207 112.579 334.515 111.889 334.515 111.059C334.515 110.23 335.207 109.539 336.035 109.539C336.865 109.539 337.556 110.23 337.556 111.059C337.556 111.889 336.865 112.579 336.035 112.579ZM336.035 110.46C335.713 110.46 335.437 110.737 335.437 111.059C335.437 111.381 335.713 111.657 336.035 111.657C336.358 111.657 336.635 111.381 336.635 111.059C336.635 110.737 336.358 110.46 336.035 110.46Z" fill="#484F58"/>
<path d="M340.274 115.207C339.49 115.207 338.846 114.562 338.846 113.779C338.846 112.996 339.49 112.351 340.274 112.351C341.057 112.351 341.702 112.996 341.702 113.779C341.702 114.562 341.057 115.207 340.274 115.207ZM340.274 113.272C339.997 113.272 339.766 113.502 339.766 113.779C339.766 114.055 339.997 114.286 340.274 114.286C340.55 114.286 340.78 114.055 340.78 113.779C340.78 113.502 340.55 113.272 340.274 113.272Z" fill="#484F58"/>
<path d="M334.055 117.697C332.764 117.697 331.751 117.144 331.705 117.098L332.165 116.314C332.257 116.36 334.055 117.374 335.667 116.314C336.911 115.531 338.108 114.609 339.214 113.688L339.813 114.379C338.661 115.347 337.417 116.268 336.173 117.098C335.483 117.558 334.745 117.697 334.055 117.697Z" fill="#484F58"/>
<path d="M325.623 142.766C328.019 140.508 330.691 138.48 333.501 136.729C335.483 137.144 337.325 136.822 338.846 137.052C342.07 134.194 345.849 130.877 349.165 128.157C345.387 127.144 334.055 124.148 334.055 124.148L328.296 126.315C328.296 126.315 325.669 126.176 323.781 127.236C322.307 128.111 315.258 132.443 312.493 134.148C314.29 136.776 322.859 140.692 325.623 142.766Z" fill="#6E7681"/>
<path d="M312.631 134.239L312.493 134.055C315.12 132.443 322.261 128.018 323.781 127.143C325.577 126.13 328.019 126.176 328.342 126.222L334.101 124.056H334.147C334.239 124.102 345.479 127.051 349.257 128.064L349.211 128.295C345.572 127.328 334.883 124.47 334.147 124.286L328.434 126.452H328.388C328.342 126.452 325.762 126.314 323.965 127.374C322.399 128.203 315.258 132.627 312.631 134.239Z" fill="#6E7681"/>
<path d="M56.5281 157.927C78.7151 157.927 96.7013 156.152 96.7013 153.963C96.7013 151.775 78.7151 150 56.5281 150C34.3411 150 16.355 151.775 16.355 153.963C16.355 156.152 34.3411 157.927 56.5281 157.927Z" fill="#161B22" fill-opacity="0.5"/>
<path d="M78.3652 141.29C78.3652 141.29 79.1485 147.281 80.7148 148.894C82.2812 150.506 88.6849 154.977 89.0074 154.147C85.8747 150.23 82.5577 140.553 82.5577 140.553L78.3652 141.29Z" fill="#30363D"/>
<path d="M57.8184 141.705C57.7262 141.751 57.6802 141.797 57.6342 141.843C57.542 141.935 57.6342 142.12 57.6802 142.212C58.4173 143.456 58.9702 144.838 59.3847 146.222C59.6612 147.235 60.214 148.618 61.1354 148.156C62.7479 147.282 61.4119 145.162 61.1354 143.364C61.3198 144.47 64.9132 143.18 66.065 141.521C67.5392 139.401 63.9918 139.079 62.7018 139.401C61.0433 139.815 59.3847 140.968 57.8184 141.705Z" fill="#30363D"/>
<path d="M71.5007 128.756C69.3354 128.526 67.124 128.572 65.143 129.447C63.2541 130.277 61.7338 131.797 60.3517 133.318C59.9371 133.825 59.4764 134.24 58.9236 134.609C58.3707 134.885 57.7718 135.023 57.1729 135.023C54.2704 135.115 51.5523 133.503 49.6174 131.383C47.6824 129.263 46.3004 126.682 44.8261 124.194C42.4765 120.231 39.6201 116.267 35.566 114.101C29.9454 111.06 22.5742 111.982 17.4143 115.853C12.2545 119.677 9.25996 126.038 8.79926 132.397C8.70712 133.825 8.98353 135.623 10.3657 135.945L12.4849 131.843C13.5445 129.816 14.6502 127.742 16.4469 126.314C18.2436 124.885 20.9157 124.378 22.8046 125.668C24.2788 126.682 24.8777 128.572 25.062 130.369C25.2463 132.166 25.108 133.963 25.5227 135.715C26.5363 139.954 30.6826 142.904 34.921 143.733C38.0077 144.332 41.2326 144.056 44.1811 142.904C49.0645 140.968 53.303 136.729 58.5089 137.051C59.2 138.894 60.9967 140.139 62.8856 140.692C64.7744 141.244 66.8015 141.106 68.7364 141.014L66.1566 144.102C67.4926 146.82 69.3354 149.263 71.5007 151.337C72.5603 148.664 71.6849 145.945 70.0264 143.594C70.4411 142.766 71.1321 142.074 71.9614 141.706C73.8963 142.719 78.964 142.442 81.1293 142.166C81.0372 143.733 81.3597 147.328 82.3732 148.848C83.3867 150.369 86.6117 153.641 88.4544 154.609C89.6062 155.253 93.1536 156.083 93.7065 155.023C89.3298 153.18 84.9992 148.71 85.0453 143.964C85.0453 141.659 87.0724 140.139 86.9341 138.203C86.8421 136.498 84.0778 134.517 82.88 133.549C79.6551 130.922 75.693 129.263 71.5007 128.756Z" fill="#484F58"/>
<path d="M47.2678 136.591C45.5632 136.591 43.7664 136.959 42.5226 135.577C42.1079 135.023 41.7393 134.425 41.4169 133.825C40.4033 132.259 39.1594 132.074 37.3627 132.213C35.1974 132.351 34.4142 131.521 33.5389 129.54C31.0511 124.01 24.7856 119.678 18.7504 122.904C14.1434 125.392 11.3331 130.83 10.0431 135.715C10.0431 135.761 9.99707 135.807 9.99707 135.853C10.0893 135.899 10.1813 135.945 10.3196 135.991L12.4849 131.89C13.5445 129.862 14.6501 127.788 16.4468 126.36C18.2437 124.932 20.9157 124.424 22.8045 125.714C24.2788 126.728 24.8777 128.618 25.062 130.415C25.2463 132.213 25.1081 134.009 25.5227 135.761C26.5363 140 30.6826 142.95 34.921 143.78C38.0077 144.378 41.2326 144.102 44.1811 142.95C47.6363 141.567 50.8152 139.033 54.2244 137.789C52.1051 136.867 49.8016 136.591 47.2678 136.591Z" fill="#30363D"/>
<g opacity="0.6">
<path opacity="0.8" d="M70.5332 134.747C70.6253 134.747 74.6795 137.466 74.6334 138.756C74.5873 140.046 70.9478 141.982 70.9478 141.982C70.9478 141.982 72.7445 139.724 72.3299 138.342C71.9152 136.959 70.5332 134.747 70.5332 134.747Z" fill="#8B949E"/>
</g>
<path d="M85.7362 135.945C85.3216 137.328 84.5384 138.618 84.2159 140.093C83.7553 141.89 84.1238 143.826 85.2295 145.3C85.1373 144.886 85.1373 144.424 85.1373 144.01C85.1373 141.706 87.1644 140.185 87.0262 138.25C86.934 137.466 86.4273 136.683 85.7362 135.945Z" fill="#30363D"/>
<path d="M88.501 133.134C89.5606 132.719 90.4359 133.825 89.6988 136.359L91.0348 136.405C90.8044 135.715 90.7122 134.977 90.8044 134.24C90.8505 133.595 91.4033 133.134 92.0484 133.18H92.0944C92.8315 133.226 93.0618 133.825 93.108 134.562C93.108 135.253 92.9698 135.945 92.6473 136.59C94.2596 137.743 95.135 139.723 94.9047 141.705C94.7665 142.396 94.6283 143.088 94.5822 143.779C94.5361 144.516 94.9047 145.162 95.5036 145.53C95.8721 145.668 96.2868 145.714 96.6554 145.806C97.0239 145.898 97.4385 146.222 97.3925 146.636C97.3463 146.958 97.0239 147.142 96.7474 147.328C94.49 148.434 91.864 148.434 89.6526 147.328C87.7177 146.36 86.1514 144.516 85.8749 142.396C85.6907 140.968 86.1052 139.585 87.0267 138.479C87.3492 138.111 88.3628 137.603 88.501 137.143C87.9021 136.405 87.0728 133.687 88.501 133.134Z" fill="#484F58"/>
<path d="M96.701 146.958C97.0317 146.958 97.2999 146.689 97.2999 146.359C97.2999 146.028 97.0317 145.76 96.701 145.76C96.3701 145.76 96.1021 146.028 96.1021 146.359C96.1021 146.689 96.3701 146.958 96.701 146.958Z" fill="#30363D"/>
<g opacity="0.6">
<path opacity="0.8" d="M38.8833 121.566C41.325 124.331 43.2139 127.511 45.5174 130.368C47.8209 133.225 50.9998 135.298 54.5932 136.174C54.8696 136.128 55.0999 136.082 55.3764 136.036C52.8425 135.806 50.4929 134.331 48.7423 132.442C46.7613 130.322 45.4253 127.741 43.951 125.253C41.6014 121.29 38.7451 117.326 34.6909 115.16C31.8806 113.686 28.7018 113.087 25.5229 113.455C30.6828 114.423 35.5202 117.742 38.8833 121.566Z" fill="#8B949E"/>
</g>
<g opacity="0.6">
<path opacity="0.8" d="M78.964 133.041C81.2214 134.332 82.9721 136.174 84.5385 138.202C84.6307 137.649 84.815 137.096 84.9992 136.59C83.8474 135.253 82.4654 134.054 80.9911 133.087C77.5819 130.875 73.6659 130.23 69.75 129.539L71.086 130.184C73.7121 131.152 76.5223 131.612 78.964 133.041Z" fill="#8B949E"/>
</g>
<g opacity="0.6">
<path opacity="0.8" d="M88.0864 134.839C89.4224 134.747 88.6853 137.097 89.4225 137.373C90.0214 137.604 90.7585 137.143 91.4496 137.419C92.1867 137.789 92.7396 138.341 93.1081 139.079C93.6148 140.093 93.6148 141.014 93.5227 142.12C93.4766 143.548 93.5688 145.024 95.2273 145.438C94.7205 145.024 94.4441 144.424 94.4901 143.78C94.5363 143.088 94.6745 142.396 94.8127 141.706C95.043 139.724 94.1677 137.743 92.5552 136.591C92.8777 135.945 93.0159 135.253 93.0159 134.563C92.9698 133.825 92.7395 133.226 92.0023 133.18C91.3574 133.088 90.8045 133.549 90.7124 134.194V134.24C90.6203 134.977 90.7124 135.715 90.9427 136.406L89.6067 136.359C90.3438 133.779 89.4685 132.673 88.4089 133.134C87.7179 133.411 87.5797 134.147 87.6257 134.977C87.81 134.931 87.9482 134.885 88.0864 134.839Z" fill="#8B949E"/>
</g>
</svg>
